Coordinates
version=1
nRows=22
nColumns=24
inDegrees=yes

Units are S.I. units (second, meters, Newtons, ...)
If the header above contains a line with 'inDegrees', this indicates whether rotational values are in degrees (yes) or radians (no).

endheader
time	pelvis_tilt	pelvis_list	pelvis_rotation	pelvis_tx	pelvis_ty	pelvis_tz	lumbar_extension	lumbar_bending	lumbar_rotation	arm_flex_r	arm_add_r	arm_rot_r	elbow_flex_r	pro_sup_r	wrist_flex_r	wrist_dev_r	arm_flex_l	arm_add_l	arm_rot_l	elbow_flex_l	pro_sup_l	wrist_flex_l	wrist_dev_l
      0.00000000	    -16.08039872	     -0.96336638	      4.04256670	      1.10410058	      0.88039235	      0.11924828	    -12.66355686	     -0.64594898	      3.75026989	     18.99544141	    -12.03576945	     30.99788326	     15.59346100	     52.84184416	    -22.82599939	    -24.99999983	     16.34625274	     -4.49909895	     18.61861907	     15.71756864	     59.60608841	    -23.49580981	    -14.98836609
      0.00400000	    -16.07540664	     -0.96241484	      4.04255423	      1.10382042	      0.88041691	      0.11924544	    -12.66010525	     -0.64528724	      3.75050402	     18.99343217	    -12.03391903	     30.99804144	     15.59362594	     52.84175887	    -22.82584523	    -24.99999983	     16.34647776	     -4.49892921	     18.61857467	     15.71756350	     59.60624389	    -23.49570915	    -14.98833909
      0.00800000	    -16.05117343	     -0.95854949	      4.04747922	      1.10353538	      0.88037286	      0.11929176	    -12.63751259	     -0.64436067	      3.75535353	     18.98912212	    -12.01581937	     31.00028112	     15.59891603	     52.84089038	    -22.82358259	    -24.99999983	     16.37204013	     -4.49637008	     18.61551347	     15.72089585	     59.60688825	    -23.49337516	    -14.98838827
      0.01200000	    -16.03174442	     -0.96280887	      4.04804483	      1.10329047	      0.88028710	      0.11939813	    -12.62031716	     -0.65026044	      3.75389360	     18.98030215	    -11.99378693	     31.00389669	     15.60331321	     52.84044837	    -22.82148940	    -24.99999983	     16.39544471	     -4.48424887	     18.61528562	     15.72643555	     59.60878392	    -23.49229360	    -14.98805558
      0.01600000	    -16.01291330	     -0.96544008	      4.05192351	      1.10303141	      0.88021669	      0.11949418	    -12.60356372	     -0.65522509	      3.75611008	     18.97081732	    -11.97303903	     31.00801726	     15.60664478	     52.84004432	    -22.81935888	    -24.99999983	     16.41772904	     -4.47819491	     18.61412972	     15.72981856	     59.61051552	    -23.49180270	    -14.98757443
      0.02000000	    -15.99478741	     -0.96857683	      4.05955294	      1.10277299	      0.88009082	      0.11961877	    -12.58773063	     -0.66155072	      3.76170651	     18.95751031	    -11.94963256	     31.01340224	     15.60897595	     52.83940104	    -22.81672465	    -24.99999983	     16.44263480	     -4.47624175	     18.61148717	     15.73093403	     59.61213350	    -23.49156411	    -14.98669273
      0.02400000	    -15.97755256	     -1.01784292	      4.15250381	      1.10269419	      0.88016977	      0.12064899	    -12.57303952	     -0.73440244	      3.83449197	     18.84050226	    -11.84080398	     31.04991596	     15.58964892	     52.82735181	    -22.79596335	    -24.99999983	     16.56412145	     -4.54928267	     18.57603096	     15.66918801	     59.62022294	    -23.49341747	    -14.97182696
      0.02800000	    -15.95588480	     -1.01456882	      4.14878945	      1.10242278	      0.88010596	      0.12067225	    -12.55318188	     -0.73194398	      3.83096185	     18.83985466	    -11.83134254	     31.05090569	     15.59082313	     52.82599391	    -22.79456738	    -24.99999983	     16.57767128	     -4.54424725	     18.57628214	     15.66888506	     59.62189549	    -23.49289901	    -14.97083687
      0.03200000	    -15.93668633	     -1.01201268	      4.14599129	      1.10217636	      0.88006030	      0.12071053	    -12.53560056	     -0.73026565	      3.82812657	     18.83566726	    -11.81680656	     31.05320622	     15.59218075	     52.82483144	    -22.79293455	    -24.99999983	     16.59214962	     -4.53625207	     18.57652066	     15.66854142	     59.62332497	    -23.49239326	    -14.96974307
      0.03600000	    -15.91936651	     -1.00925501	      4.14421399	      1.10194077	      0.88002789	      0.12075930	    -12.51974284	     -0.72851834	      3.82630812	     18.82899276	    -11.80027305	     31.05631012	     15.59285711	     52.82366960	    -22.79112783	    -24.99999983	     16.60675610	     -4.52834519	     18.57662592	     15.66624802	     59.62440777	    -23.49195845	    -14.96837895
      0.04000000	    -15.89751406	     -1.00955644	      4.14587327	      1.10168158	      0.87998091	      0.12082174	    -12.49973519	     -0.73085782	      3.82697908	     18.82165255	    -11.78396634	     31.05995202	     15.59247991	     52.82238155	    -22.78912905	    -24.99999983	     16.62418849	     -4.51948221	     18.57637197	     15.66321276	     59.62528575	    -23.49152324	    -14.96679099
      0.04400000	    -15.76630137	     -1.03229147	      4.28289449	      1.10274328	      0.87954417	      0.12132389	    -12.36371024	     -0.79421344	      3.94797452	     18.53893814	    -11.68913544	     31.15776511	     15.36055341	     52.70070606	    -22.69521888	    -24.99999983	     16.79897556	     -4.40252828	     18.61371549	     15.01126693	     59.66761746	    -23.46588290	    -14.83194067
      0.04800000	    -15.74167825	     -1.03042842	      4.28591544	      1.10245060	      0.87949077	      0.12128934	    -12.34094167	     -0.79465681	      3.95098890	     18.53735696	    -11.68667433	     31.16099672	     15.36063216	     52.69889803	    -22.69291157	    -24.99999983	     16.81532230	     -4.38673539	     18.61861868	     15.02004165	     59.67134779	    -23.46352688	    -14.83196874
      0.05200000	    -15.72255865	     -1.03100669	      4.28183103	      1.10214349	      0.87947660	      0.12126775	    -12.32389654	     -0.79558769	      3.94663443	     18.52871303	    -11.67888440	     31.16410027	     15.36104453	     52.69764120	    -22.69077005	    -24.99999983	     16.83264560	     -4.37203563	     18.62218936	     15.02679264	     59.67398463	    -23.46173671	    -14.83184631
      0.05600000	    -15.70698947	     -1.02816288	      4.28007046	      1.10188719	      0.87942274	      0.12128834	    -12.30997687	     -0.79357815	      3.94507222	     18.52014767	    -11.66617227	     31.16822259	     15.36304843	     52.69659208	    -22.68825474	    -24.99999983	     16.84804656	     -4.36058410	     18.62490731	     15.03086545	     59.67622864	    -23.46015163	    -14.83146207
      0.06000000	    -15.70363884	     -1.02727941	      4.27905797	      1.10164161	      0.87938348	      0.12134444	    -12.30826482	     -0.79286857	      3.94394739	     18.51659324	    -11.66369553	     31.16897789	     15.36292418	     52.69644961	    -22.68789387	    -24.99999983	     16.84852739	     -4.35915237	     18.62519101	     15.03087646	     59.67647165	    -23.45995761	    -14.83135622
      0.06400000	    -15.68041860	     -1.02483233	      4.27312050	      1.10139283	      0.87928950	      0.12140223	    -12.28696193	     -0.79103285	      3.93774815	     18.50522985	    -11.63631170	     31.17642553	     15.36867050	     52.69581878	    -22.68447295	    -24.99999983	     16.87281471	     -4.34775598	     18.62700840	     15.03607508	     59.67869070	    -23.45826827	    -14.83086299
      0.06800000	    -15.66277910	     -1.02583330	      4.27170761	      1.10115687	      0.87921233	      0.12148696	    -12.27126315	     -0.79321213	      3.93521774	     18.49487671	    -11.61596502	     31.18321554	     15.37189435	     52.69508778	    -22.68139832	    -24.99999983	     16.89018568	     -4.34332514	     18.62737026	     15.03660092	     59.68009015	    -23.45705572	    -14.83001886
      0.07200000	    -15.62780394	     -1.07373606	      4.34856014	      1.10124280	      0.87915176	      0.12246437	    -12.23876504	     -0.86211631	      3.99265301	     18.36489294	    -11.50178695	     31.26011399	     15.35165941	     52.67690826	    -22.64275359	    -24.99999983	     16.98565310	     -4.41036139	     18.61307481	     14.93808261	     59.68733650	    -23.44709483	    -14.80879508
      0.07600000	    -15.60594004	     -1.06725803	      4.34781917	      1.10099027	      0.87906663	      0.12248771	    -12.21838402	     -0.85727829	      3.99261543	     18.36279083	    -11.49627481	     31.26367133	     15.35006254	     52.67496187	    -22.64042723	    -24.99999983	     16.99770214	     -4.40335342	     18.61494874	     14.93697332	     59.68885627	    -23.44573320	    -14.80767096
      0.08000000	    -15.60322994	     -1.06516727	      4.34731869	      1.10079278	      0.87898265	      0.12257355	    -12.21712429	     -0.85557026	      3.99203893	     18.35987617	    -11.49478214	     31.26447359	     15.34915405	     52.67470239	    -22.64011791	    -24.99999983	     16.99794095	     -4.40174062	     18.61520404	     14.93663276	     59.68901244	    -23.44555709	    -14.80749657
      0.08400000	    -15.87647224	     -0.46916441	      4.14292944	      1.09465846	      0.87706274	      0.11558320	    -12.49217762	     -0.18961087	      3.97166404	     17.52831863	    -13.21749862	     25.60129670	     19.87352659	     55.46368002	    -25.13488571	    -24.99999983	     17.51703789	     -3.32263460	     18.29705951	     14.63079144	     60.50126249	    -22.56230518	    -14.25814251
